<svg preserveAspectRatio="none" overflow="visible" style="display: block;" width="5.33016" height="5.15993" viewBox="0 0 5.33016 5.15993" fill="none" xmlns="http://www.w3.org/2000/svg">
<g id="Star 2">
<path id="Vector" d="M1.79228 0.634128C2.067 -0.211376 3.26316 -0.211376 3.53788 0.634128C3.66074 1.01225 4.0131 1.26826 4.41068 1.26826C5.2997 1.26826 5.66933 2.40587 4.9501 2.92842C4.62846 3.16211 4.49386 3.57634 4.61672 3.95446C4.89144 4.79997 3.92373 5.50305 3.2045 4.9805C2.88285 4.74681 2.44731 4.74681 2.12566 4.9805C1.40643 5.50305 0.438716 4.79997 0.713437 3.95446C0.836295 3.57634 0.701705 3.16211 0.380056 2.92842C-0.339172 2.40587 0.0304622 1.26826 0.919477 1.26826C1.31706 1.26826 1.66942 1.01225 1.79228 0.634128Z" fill="#FFCB00"/>
</g>
</svg>
